<mxfile host="app.diagrams.net" agent="Mozilla/5.0 (Macintosh; Intel Mac OS X 10_15_7) AppleWebKit/537.36 (KHTML, like Gecko) Chrome/127.0.0.0 Safari/537.36" version="25.0.3">
  <diagram name="FlowDiagram" id="mbIOiugNw9bwOjeHvICD">
    <mxGraphModel dx="1026" dy="684" grid="1" gridSize="10" guides="1" tooltips="1" connect="1" arrows="1" fold="1" page="1" pageScale="1" pageWidth="827" pageHeight="1169" math="0" shadow="0">
      <root>
        <mxCell id="0" />
        <mxCell id="1" parent="0" />
        <mxCell id="lrhStaoWztvLpq6HNO21-1" value="End User" style="rounded=0;whiteSpace=wrap;html=1;align=center;verticalAlign=middle;" parent="1" vertex="1">
          <mxGeometry x="120" y="240" width="120" height="50" as="geometry" />
        </mxCell>
        <mxCell id="lrhStaoWztvLpq6HNO21-2" value="Pega Developer" style="rounded=0;whiteSpace=wrap;html=1;align=center;verticalAlign=middle;" parent="1" vertex="1">
          <mxGeometry x="620" y="240" width="130" height="50" as="geometry" />
        </mxCell>
        <mxCell id="lrhStaoWztvLpq6HNO21-3" value="Pega Application UI" style="rounded=0;whiteSpace=wrap;html=1;align=center;verticalAlign=middle;" parent="1" vertex="1">
          <mxGeometry x="270" y="340" width="150" height="50" as="geometry" />
        </mxCell>
        <mxCell id="lrhStaoWztvLpq6HNO21-4" value="Report Definition" style="rounded=0;whiteSpace=wrap;html=1;align=center;verticalAlign=middle;" parent="1" vertex="1">
          <mxGeometry x="620" y="340" width="140" height="50" as="geometry" />
        </mxCell>
        <mxCell id="lrhStaoWztvLpq6HNO21-5" value="Report Engine (Runtime)" style="rounded=0;whiteSpace=wrap;html=1;align=center;verticalAlign=middle;" parent="1" vertex="1">
          <mxGeometry x="440" y="470" width="160" height="50" as="geometry" />
        </mxCell>
        <mxCell id="lrhStaoWztvLpq6HNO21-6" value="Database / Tables" style="rounded=0;whiteSpace=wrap;html=1;align=center;verticalAlign=top;" parent="1" vertex="1">
          <mxGeometry x="440" y="570" width="160" height="60" as="geometry" />
        </mxCell>
        <mxCell id="lrhStaoWztvLpq6HNO21-7" value="(1) Report Browser / Landing Page" style="edgeStyle=orthogonalEdgeStyle;rounded=0;html=1;" parent="1" source="lrhStaoWztvLpq6HNO21-1" target="lrhStaoWztvLpq6HNO21-3" edge="1">
          <mxGeometry relative="1" as="geometry" />
        </mxCell>
        <mxCell id="lrhStaoWztvLpq6HNO21-8" value="(1) Access/Define Report" style="edgeStyle=orthogonalEdgeStyle;rounded=0;html=1;" parent="1" source="lrhStaoWztvLpq6HNO21-2" target="lrhStaoWztvLpq6HNO21-4" edge="1">
          <mxGeometry relative="1" as="geometry" />
        </mxCell>
        <mxCell id="lrhStaoWztvLpq6HNO21-9" value="" style="edgeStyle=orthogonalEdgeStyle;rounded=0;html=1;" parent="1" source="lrhStaoWztvLpq6HNO21-3" target="lrhStaoWztvLpq6HNO21-4" edge="1">
          <mxGeometry relative="1" as="geometry" />
        </mxCell>
        <mxCell id="lrhStaoWztvLpq6HNO21-10" value="" style="edgeStyle=orthogonalEdgeStyle;rounded=0;html=1;endArrow=classic;" parent="1" source="lrhStaoWztvLpq6HNO21-4" target="lrhStaoWztvLpq6HNO21-3" edge="1">
          <mxGeometry relative="1" as="geometry" />
        </mxCell>
        <mxCell id="lrhStaoWztvLpq6HNO21-11" value="(2) Request Data" style="edgeStyle=orthogonalEdgeStyle;rounded=0;html=1;exitX=0.5;exitY=1;exitDx=0;exitDy=0;" parent="1" source="lrhStaoWztvLpq6HNO21-4" target="lrhStaoWztvLpq6HNO21-5" edge="1">
          <mxGeometry relative="1" as="geometry" />
        </mxCell>
        <mxCell id="lrhStaoWztvLpq6HNO21-12" value="(3) Generate/Execute SQL" style="edgeStyle=orthogonalEdgeStyle;rounded=0;html=1;" parent="1" source="lrhStaoWztvLpq6HNO21-5" target="lrhStaoWztvLpq6HNO21-6" edge="1">
          <mxGeometry relative="1" as="geometry" />
        </mxCell>
        <mxCell id="lrhStaoWztvLpq6HNO21-13" value="" style="shape=cylinder3;whiteSpace=wrap;html=1;boundedLbl=1;backgroundOutline=1;size=15;" parent="1" vertex="1">
          <mxGeometry x="490" y="600" width="60" height="80" as="geometry" />
        </mxCell>
      </root>
    </mxGraphModel>
  </diagram>
</mxfile>
